<svg width="900" height="560" viewBox="0 0 900 560" fill="none" xmlns="http://www.w3.org/2000/svg">
  <rect width="900" height="560" fill="#06101F"/>
  <rect x="70" y="86" width="760" height="388" rx="20" fill="#111D31"/>
  <rect x="108" y="128" width="684" height="292" rx="14" fill="#081426"/>
  <path d="M142 320C248 248 342 250 450 304C558 358 648 348 758 230" stroke="#34C8FF" stroke-width="12" stroke-linecap="round"/>
  <path d="M142 352C258 294 350 300 452 344C556 389 668 380 758 300" stroke="#2F7CFF" stroke-width="5" stroke-linecap="round" opacity=".45"/>
  <rect x="150" y="158" width="160" height="18" rx="9" fill="#F7FBFF"/>
  <rect x="150" y="202" width="238" height="12" rx="6" fill="#2B4058"/>
  <rect x="150" y="232" width="190" height="12" rx="6" fill="#2B4058"/>
  <circle cx="730" cy="166" r="28" stroke="#34C8FF" stroke-width="6"/>
</svg>
